<svg xmlns="http://www.w3.org/2000/svg" width="297.581" height="256.595" viewBox="0 0 297.581 256.595">
  <g id="Grupo_737" data-name="Grupo 737" transform="translate(-177.835 -1664.634)">
    <line id="Línea_60" data-name="Línea 60" y2="97.934" transform="translate(339.279 1788.712)" fill="none" stroke="#a4a4a4" stroke-linecap="round" stroke-linejoin="round" stroke-width="3"/>
    <rect id="Rectángulo_1386" data-name="Rectángulo 1386" width="12.259" height="17.241" rx="6.13" transform="translate(374.49 1686.003)" fill="#6bd5e1"/>
    <path id="Trazado_3639" data-name="Trazado 3639" d="M391.81,679.1c-.435,1.085-3.4,7.739-3.4,7.739l9.58,3.65,2.859-9.51Z" transform="translate(-58.445 1216.409)" fill="#f4a783"/>
    <path id="Trazado_3640" data-name="Trazado 3640" d="M517.992,655.08l1.97,7.269-8.625,4.218-5.687-5.918Z" transform="translate(-129.765 1231.021)" fill="#f4a783"/>
    <path id="Trazado_3641" data-name="Trazado 3641" d="M418.469,299.44c-.983,1.136-9.126,10.9-9.71,11.676s-24.425,8.018-25.682,8.354-5.777,2.3-7.05,2.3-5.358-1.351-7.05-1.073-7.093,3.439-6.572,4.7,58.833-2.949,58.833-2.949l6.357-19.783Z" transform="translate(-42.604 1447.367)" fill="#e87f55"/>
    <line id="Línea_61" data-name="Línea 61" x1="14.817" y2="76.329" transform="translate(372.485 1838.07)" fill="none" stroke="#e0e0e0" stroke-linecap="round" stroke-linejoin="round" stroke-width="2"/>
    <path id="Trazado_3642" data-name="Trazado 3642" d="M581.507,214.45h33.511L583.238,339H521.82v-8.108l34.389-22.835Z" transform="translate(-139.602 1499.068)" fill="#e0e0e0"/>
    <path id="Trazado_3643" data-name="Trazado 3643" d="M468.214,509.746c1.7,3.474,16.059,52.245,16.431,55.081-1.829,1.919-9.76,6.188-13.148,6.467-5.738-4.516-21.816-42.438-21.816-42.438S455.156,497.392,468.214,509.746Z" transform="translate(-95.717 1321.181)" fill="#282850"/>
    <path id="Trazado_3644" data-name="Trazado 3644" d="M504.077,395.59c1.245,1.48,5.276,23.332,5.875,28.984.92,8.883-16.3,21.895-40.613,21.895-8.025,0-34.6-1.79-42.23-4.673-.392,4.829-19.639,65.061-21.82,67.242-3.584.936-8.883-1.01-10.207-2.35s9.2-84.546,12.142-89.92,62.958-9.412,62.958-9.412Z" transform="translate(-62.434 1388.876)" fill="#303d72"/>
    <path id="Trazado_3645" data-name="Trazado 3645" d="M528.1,235.124c11.268,6.576-5.581,35.3-7.712,36.034-3.4-.392-15.22-7.3-17.437-12.393C502.476,255.64,518.48,229.5,528.1,235.124Z" transform="translate(-128.119 1486.972)" fill="#c1c1c1"/>
    <path id="Trazado_3646" data-name="Trazado 3646" d="M552.282,205.91c18.836,0,36.974,71.907,36.23,74.786-1.524,5.9-32.38,16.7-37.33,12.06C538.66,281.037,515.567,205.91,552.282,205.91Z" transform="translate(-146.054 1504.263)" fill="#e5e5e5"/>
    <line id="Línea_62" data-name="Línea 62" x2="19.269" y2="81.658" transform="translate(440.096 1838.07)" fill="none" stroke="#e0e0e0" stroke-linecap="round" stroke-linejoin="round" stroke-width="2"/>
    <path id="Trazado_3647" data-name="Trazado 3647" d="M365.871,701.565l-4.915,12.4L334.42,702.141l2.636-5.311,19.38.576Z" transform="translate(-25.601 1205.623)"/>
    <path id="Trazado_3648" data-name="Trazado 3648" d="M508.661,671.35l6.521,11.637-25.917,13.129-2.456-5.4,12.674-14.668Z" transform="translate(-118.304 1221.124)"/>
    <path id="Trazado_3649" data-name="Trazado 3649" d="M556.037,185.69c.427,2.381,3.133,9.561,4.308,10.877s-5.151,9.008-12.185,7.6c-.211-2.417-1.046-9.259-2.15-10.4S556.037,185.69,556.037,185.69Z" transform="translate(-154.271 1516.564)" fill="#e87f55"/>
    <ellipse id="Elipse_867" data-name="Elipse 867" cx="14.562" cy="19.779" rx="14.562" ry="19.779" transform="translate(369.456 1677.263) rotate(-18.072)" fill="#f4a783"/>
    <path id="Trazado_3650" data-name="Trazado 3650" d="M485.689,89.64c7.8,0,27.852,13.861,27.852,27.809,0,7.485-1.324,9.4-1.825,9.4s-5.342-3.756-5.342-6.455-.952-6.69-1.88-6.69c-1.567,0-1.8,1.743-5.738,1.743-1.508,0-4.34-1.8-4.34-3.862-3.2.055-3.2,1.112-7.591,1.112-4.974,0-17.194-2.515-17.194-6.376,0-2.616,3.411-4.418,6.772-3.78-2.276-1.218-4.308-3.733-4.308-5.4,0-2.33,2.938-3.94,5.213-3.94a9.373,9.373,0,0,1,6.188,2.248C482.567,93.847,483.483,89.64,485.689,89.64Z" transform="translate(-107.853 1574.994)" fill="#1c1c1c"/>
    <ellipse id="Elipse_868" data-name="Elipse 868" cx="4.046" cy="4.046" rx="4.046" ry="4.046" transform="translate(391.971 1688.573)" fill="#e49d75"/>
    <rect id="Rectángulo_1387" data-name="Rectángulo 1387" width="203.126" height="5.695" transform="translate(177.835 1783.021)" fill="#a4a4a4"/>
    <path id="Trazado_3651" data-name="Trazado 3651" d="M185.653,368.28H17.257L0,377.48H202.914Z" transform="translate(177.835 1405.489)" fill="#e0e0e0"/>
    <path id="Trazado_3657" data-name="Trazado 3657" d="M0,0V131.017" transform="translate(203.416 1788.712)" fill="none" stroke="#a4a4a4" stroke-linecap="round" stroke-width="3"/>
    <line id="Línea_64" data-name="Línea 64" y2="97.934" transform="translate(219.513 1788.712)" fill="none" stroke="#a4a4a4" stroke-linecap="round" stroke-linejoin="round" stroke-width="3"/>
    <line id="Línea_65" data-name="Línea 65" y2="131.017" transform="translate(355.381 1788.712)" fill="none" stroke="#a4a4a4" stroke-linecap="round" stroke-linejoin="round" stroke-width="3"/>
    <rect id="Rectángulo_1388" data-name="Rectángulo 1388" width="36.014" height="2.468" transform="translate(297.629 1774.408)" fill="#a4a4a4"/>
    <rect id="Rectángulo_1389" data-name="Rectángulo 1389" width="6.893" height="8.206" transform="translate(252.563 1771.337)" fill="#a4a4a4"/>
    <ellipse id="Elipse_869" data-name="Elipse 869" cx="8.076" cy="3.776" rx="8.076" ry="3.776" transform="translate(316.241 1774.345)" fill="#f2f2f2"/>
    <path id="Trazado_3652" data-name="Trazado 3652" d="M422.527,309.46c-1.175,1.281-8.366,11.621-9.142,12.714-16.45,1.919-38.188,7.2-38.987,7.222s-9.941-2.934-11.167-2.718-3.733,4.61-3.627,5.515,7.3,5.252,15.592,5.143c1.567-.106,2.08-.96,3.705-.96s38.776,2.871,45.223-.5c3.505-1.837,13.356-15.69,13.356-16.728S422.527,309.46,422.527,309.46Z" transform="translate(-40.92 1441.271)" fill="#f4a783"/>
    <path id="Trazado_3653" data-name="Trazado 3653" d="M541.047,243.684c11.264,6.576-5.581,35.3-7.712,36.034-3.4-.392-15.22-7.3-17.441-12.392C515.416,264.2,531.42,238.064,541.047,243.684Z" transform="translate(-135.99 1481.764)" fill="#c1c1c1"/>
    <rect id="Rectángulo_1390" data-name="Rectángulo 1390" width="3.302" height="106.288" transform="translate(246.719 1669.506)" fill="#e0e0e0"/>
    <path id="Trazado_3654" data-name="Trazado 3654" d="M184.29,102.08V208.368l15.612-5.711V107.787Z" transform="translate(65.727 1567.426)" fill="#a4a4a4"/>
    <rect id="Rectángulo_1391" data-name="Rectángulo 1391" width="12.259" height="17.241" rx="6.13" transform="translate(389.578 1686.003)" fill="#6bd5e1"/>
    <path id="Trazado_3655" data-name="Trazado 3655" d="M547.049,120.617c0-2.174.752-14.978-6.439-18.757" transform="translate(-151.032 1567.56)" fill="none" stroke="#6bd5e1" stroke-linecap="round" stroke-linejoin="round" stroke-width="6"/>
    <path id="Trazado_3656" data-name="Trazado 3656" d="M547.135,188.22c0,1.249-.493,8.335-5.875,8.335" transform="translate(-151.428 1515.025)" fill="none" stroke="#a4a4a4" stroke-linecap="round" stroke-linejoin="round" stroke-width="6"/>
  </g>
</svg>
