<svg xmlns="http://www.w3.org/2000/svg" width="369.882" height="401.975" viewBox="0 0 369.882 401.975">
  <g id="Grupo_732" data-name="Grupo 732" transform="translate(-681 -129)">
    <g id="drawkit-drawing-man-colour" transform="translate(681 129)">
      <line id="Línea_55" data-name="Línea 55" x2="48.45" y2="1.277" transform="translate(184.307 132.463)" fill="none" stroke="#343434" stroke-linecap="round" stroke-miterlimit="10" stroke-width="8"/>
      <path id="Trazado_3575" data-name="Trazado 3575" d="M244.85,637.254V718.01l72.168,40.057,119.95-31.792,1.5-82.023L356.812,608.02Z" transform="translate(-244.85 -396.673)" fill="#a9c2dc"/>
      <path id="Trazado_3606" data-name="Trazado 3606" d="M7217.8,4206.944l18.952-4.608-23.082-45.1-67.368,17.89Z" transform="translate(-7145.967 -3934.394)" fill="#356495"/>
      <path id="Trazado_3576" data-name="Trazado 3576" d="M521,604.426c2.272-2.59,62.826,22.446,71.455,34.478s-51.34,102.9-75.744,121.009c-2.726-1.867-9.333-6.6-9.333-6.6s20.529-63.021,39.19-84.268c-4.735-1.29-20.1-5.312-20.1-5.312l-16.844-52.707C512.305,609.91,518.021,607.82,521,604.426Z" transform="translate(-388.093 -394.61)" fill="#282850"/>
      <path id="Trazado_3577" data-name="Trazado 3577" d="M438.763,619.16l82.828,169.549-12,5s-61.1-76.839-63.062-82.569c-3.585-2.154-62.4-48.65-69.028-82.132C386.91,630.665,423,627.266,438.763,619.16Z" transform="translate(-317.227 -402.751)" fill="#303d72"/>
      <path id="Trazado_3578" data-name="Trazado 3578" d="M555.89,408.416c-36.415-21.754,10.237,10.619,13.018,35.141,4.93-2.272,33.5-15.93,33.5-15.93s6.952,3.921,5.562,5.816-34.76,36.277-44.619,38.426c-7.724,1.772-27.176-23.891-27.68-26.672s8.592-32.865,8.592-32.865Z" transform="translate(-403.516 -288.08)" fill="#f4a783"/>
      <ellipse id="Elipse_862" data-name="Elipse 862" cx="12.091" cy="10.028" rx="12.091" ry="10.028" transform="translate(192.352 142.443) rotate(-64.91)" fill="#de8e68"/>
      <path id="Trazado_3579" data-name="Trazado 3579" d="M490.424,337.875c14.994-10.75,41.457,26.782,40.666,32.793s-13.1,24.431-25.3,18.656S479.764,345.5,490.424,337.875Z" transform="translate(-376.762 -248.073)" fill="#c1c1c1"/>
      <path id="Trazado_3580" data-name="Trazado 3580" d="M403.069,309.39c-60.922,0-47.109,139.81-40.135,147.726,16.294,9.051,68.656-3.685,75.748-13.568C444.326,435.447,458.5,309.39,403.069,309.39Z" transform="translate(-305.765 -233.732)" fill="#e5e5e5"/>
      <path id="Trazado_3581" data-name="Trazado 3581" d="M302.723,414.63c-3.517,4.821-20.242,48.164-16.026,60.568,7.434,21.81,58.8,62.14,58.8,62.14.909-3.635,3.131-14.086,3.131-14.086s-35.078-48.772-36.9-52.426c2.867-4.435,15.385-28.948,16.562-41.73S302.723,414.63,302.723,414.63Z" transform="translate(-267.314 -291.154)" fill="#f4a783"/>
      <path id="Trazado_3582" data-name="Trazado 3582" d="M454.576,295.767c0,4.48-19.506,4.217-19.506,0V267.21h19.506Z" transform="translate(-348.639 -210.718)" fill="#e87f55"/>
      <ellipse id="Elipse_863" data-name="Elipse 863" cx="18.42" cy="27.271" rx="18.42" ry="27.271" transform="translate(84.849 19.197) rotate(-1.08)" fill="#f4a783"/>
      <circle id="Elipse_864" data-name="Elipse 864" cx="5.307" cy="5.307" r="5.307" transform="translate(79.665 47.337)" fill="#de8e68"/>
      <path id="Trazado_3583" data-name="Trazado 3583" d="M467.824,152.422a9.082,9.082,0,0,0-9.087-9.542c-7.379,0-11.5,5.907-18.175,5.907-7.165,0-8.847-4.089-16.357-4.089-14.513,0-13.027,14.949-16.021,19.656-3.767,5.907-6.243,11.959-6.243,16.239,0,7.852,4.83,11.3,8.747,12.759a5.307,5.307,0,0,1,9.705.136,4.328,4.328,0,0,0,2.976-3.976c0-2.5-2.694-6.816,1.109-10.723,3.208-3.3,21.11-2.231,24.291-6.039a33.11,33.11,0,0,1,2.726,6.625,13.99,13.99,0,0,0,2.726.309c8.02,0,10.9-4.089,10.9-6.816,0-4.089-3.635-5.6-3.635-8.179C461.463,160.128,467.824,160.7,467.824,152.422Z" transform="translate(-330.563 -142.88)" fill="#1c1c1c"/>
      <line id="Línea_56" data-name="Línea 56" x2="2.635" y2="0.527" transform="translate(127.556 73.272)" fill="#de8e68"/>
      <path id="Trazado_3584" data-name="Trazado 3584" d="M343.488,339.356c16.548,7.552,4.5,49.981-1.077,52.153s-35.068-2.158-35.968-15.1S331.756,333.994,343.488,339.356Z" transform="translate(-278.444 -249.731)" fill="#e5e5e5"/>
      <path id="Trazado_3585" data-name="Trazado 3585" d="M667.67,996.621l11.264-4.721h23.4l1.5,3.862L672.391,1008.1Z" transform="translate(-475.552 -606.128)"/>
      <path id="Trazado_3586" data-name="Trazado 3586" d="M498.734,931.86l9.8,7.288,11.923,20.124-2.558,3.262-26.64-20.76Z" transform="translate(-379.298 -573.369)"/>
      <path id="Trazado_3587" data-name="Trazado 3587" d="M1027.03,463.547c2.272,7.443-16.789,8.983-17.87,5.421S1024.612,455.587,1027.03,463.547Z" transform="translate(-661.85 -316.19)" fill="#74de84"/>
      <path id="Trazado_3588" data-name="Trazado 3588" d="M1021.9,506.706c3.562,6.911-14.894,11.864-16.6,8.556S1018.067,499.309,1021.9,506.706Z" transform="translate(-659.698 -340.147)" fill="#74de84"/>
      <path id="Trazado_3589" data-name="Trazado 3589" d="M1024.271,556.306c3.562,6.911-14.89,11.864-16.6,8.556S1020.468,548.909,1024.271,556.306Z" transform="translate(-660.991 -367.21)" fill="#74de84"/>
      <path id="Trazado_3590" data-name="Trazado 3590" d="M1028.454,602.453c3.24,6.284-12.863,10.451-14.413,7.429S1024.987,595.733,1028.454,602.453Z" transform="translate(-664.469 -392.478)" fill="#74de84"/>
      <path id="Trazado_3591" data-name="Trazado 3591" d="M1032.914,653.451c3.24,6.284-12.863,10.451-14.413,7.429S1029.442,646.726,1032.914,653.451Z" transform="translate(-666.903 -420.303)" fill="#74de84"/>
      <path id="Trazado_3592" data-name="Trazado 3592" d="M940.28,617.388c.55-2.549,27.162-21.542,33.465-50.926,10.269-47.9-11.332-77.62-4-111.835,1.363-6.466,6.361-26.713,18.393-32.738" transform="translate(-624.296 -295.115)" fill="none" stroke="#74de84" stroke-linecap="round" stroke-miterlimit="10" stroke-width="9"/>
      <path id="Trazado_3593" data-name="Trazado 3593" d="M987.513,721.936c6.125-3.535,11.041,12.35,8.106,14.045S980.957,725.721,987.513,721.936Z" transform="translate(-648.996 -458.549)" fill="#74de84"/>
      <path id="Trazado_3594" data-name="Trazado 3594" d="M987.9,680.167c4.689-5.293,14.381,8.22,12.136,10.755S982.877,685.828,987.9,680.167Z" transform="translate(-649.717 -435.373)" fill="#74de84"/>
      <path id="Trazado_3595" data-name="Trazado 3595" d="M989.288,632.187c4.689-5.293,14.381,8.22,12.136,10.755S984.267,637.853,989.288,632.187Z" transform="translate(-650.475 -409.194)" fill="#74de84"/>
      <path id="Trazado_3596" data-name="Trazado 3596" d="M982.5,591.588c3.635-6.075,15.667,5.384,13.936,8.292S978.629,598.09,982.5,591.588Z" transform="translate(-647.005 -386.753)" fill="#74de84"/>
      <path id="Trazado_3597" data-name="Trazado 3597" d="M971.467,536.992c4.544-5.416,14.6,7.824,12.423,10.419S966.6,542.79,971.467,536.992Z" transform="translate(-640.789 -357.215)" fill="#74de84"/>
      <path id="Trazado_3598" data-name="Trazado 3598" d="M973.137,478.733c5-4.975,13.818,9.133,11.414,11.518S967.762,484.077,973.137,478.733Z" transform="translate(-641.572 -325.555)" fill="#74de84"/>
      <path id="Trazado_3599" data-name="Trazado 3599" d="M1008.562,403.944c5-5,13.818,9.133,11.414,11.518S1003.173,409.27,1008.562,403.944Z" transform="translate(-660.898 -284.744)" fill="#74de84"/>
      <path id="Trazado_3600" data-name="Trazado 3600" d="M866.885,609.753c-1.336-3.562-2.272-13.29-2.272-18.02,0-31.765-18.861-37.713-28.507-37.713-18.775,0-29.366,17.362-29.366,31.6,0,12.6,5.343,23.791,11.9,33.251a10.119,10.119,0,1,1,12.473,15.4c5.412,6.034,9.887,10.719,11,13.854,3.785,10.478,2.145,15.449,4.285,20.574,5.216,12.491,10.528,18.993,16.884,18.438,14.74-1.286,20.57-13.786,20.57-46.087C883.87,631.9,871.956,623.257,866.885,609.753Z" transform="translate(-551.432 -367.209)" fill="#74de84"/>
      <path id="Trazado_3601" data-name="Trazado 3601" d="M757.542,361.583,670.97,381.735V185.491l86.572-22.741Z" transform="translate(-477.353 -153.722)" fill="#bce8ff" opacity="0.86"/>
      <path id="Trazado_3602" data-name="Trazado 3602" d="M914.727,896.895h-40.18a4.349,4.349,0,0,1-4.13-2.981l-19.97-60.577a4.344,4.344,0,0,1,4.126-5.707h80.32a4.348,4.348,0,0,1,4.126,5.721l-20.165,60.572A4.344,4.344,0,0,1,914.727,896.895Z" transform="translate(-575.16 -516.498)" fill="#fd8369"/>
    </g>
    <path id="Trazado_3605" data-name="Trazado 3605" d="M7146,4253.967l72.114,39.915-.249-88.68-71.836-31.937Z" transform="translate(-6465 -3803.673)" fill="#90b0d1"/>
    <path id="Trazado_3607" data-name="Trazado 3607" d="M7435.3,4246.491s-4.61-62.705-31.662-101.853" transform="translate(-6437.338 -3806.746)" fill="none" stroke="#0c952c" stroke-width="1"/>
    <path id="Trazado_3608" data-name="Trazado 3608" d="M7420.3,4173.807l-24.433-5.581" transform="translate(-6438.172 -3804.214)" fill="none" stroke="#0c952c" stroke-width="1"/>
    <path id="Trazado_3609" data-name="Trazado 3609" d="M7234.853,4010.252h11.85a6.91,6.91,0,0,1-6.272,3.686A5.765,5.765,0,0,1,7234.853,4010.252Z" transform="translate(-6450.791 -3819.393)" fill="#fff"/>
  </g>
</svg>
