<svg xmlns="http://www.w3.org/2000/svg" width="334.605" height="363" viewBox="0 0 334.605 363">
  <g id="Grupo_732" data-name="Grupo 732" transform="translate(-681 -129)">
    <g id="drawkit-drawing-man-colour" transform="translate(436.15 -13.88)">
      <line id="Línea_55" data-name="Línea 55" x2="43.752" y2="1.153" transform="translate(411.287 262.5)" fill="none" stroke="#343434" stroke-linecap="round" stroke-miterlimit="10" stroke-width="8"/>
      <path id="Trazado_3575" data-name="Trazado 3575" d="M244.85,634.42v72.926l65.171,36.174,108.32-28.71,1.354-74.071L345.956,608.02Z" transform="translate(0 -274.285)" fill="#a9c2dc"/>
      <path id="Trazado_3606" data-name="Trazado 3606" d="M7210.869,4202.124l17.114-4.162-20.844-40.727-60.836,16.155Z" transform="translate(-6901.15 -3813.12)" fill="#356495"/>
      <path id="Trazado_3576" data-name="Trazado 3576" d="M519.681,604.408c2.052-2.339,56.735,20.27,64.527,31.135s-46.362,92.925-68.4,109.276c-2.462-1.686-8.428-5.962-8.428-5.962s18.538-56.911,35.39-76.1c-4.276-1.165-18.148-4.8-18.148-4.8l-15.21-47.6C511.828,609.36,516.99,607.473,519.681,604.408Z" transform="translate(-154.809 -272.056)" fill="#282850"/>
      <path id="Trazado_3577" data-name="Trazado 3577" d="M432.823,619.16l74.8,153.11-10.836,4.514s-55.171-69.389-56.948-74.563c-3.237-1.945-56.349-43.933-62.335-74.169C386,629.549,418.589,626.48,432.823,619.16Z" transform="translate(-78.221 -280.854)" fill="#303d72"/>
      <path id="Trazado_3578" data-name="Trazado 3578" d="M553.927,407.72c-32.885-19.645,9.244,9.589,11.756,31.734,4.452-2.052,30.249-14.386,30.249-14.386s6.278,3.541,5.022,5.252-31.389,32.76-40.293,34.7c-6.975,1.6-24.541-21.575-25-24.086s7.759-29.678,7.759-29.678Z" transform="translate(-171.477 -156.171)" fill="#f4a783"/>
      <ellipse id="Elipse_862" data-name="Elipse 862" cx="10.919" cy="9.056" rx="10.919" ry="9.056" transform="translate(418.552 271.512) rotate(-64.91)" fill="#de8e68"/>
      <path id="Trazado_3579" data-name="Trazado 3579" d="M490.054,337.688c13.54-9.708,37.437,24.185,36.723,29.613s-11.833,22.062-22.846,16.847S480.428,344.578,490.054,337.688Z" transform="translate(-142.563 -113.713)" fill="#c1c1c1"/>
      <path id="Trazado_3580" data-name="Trazado 3580" d="M398.553,309.39c-55.015,0-42.542,126.255-36.243,133.4,14.714,8.174,62-3.328,68.4-12.252C435.81,423.224,448.612,309.39,398.553,309.39Z" transform="translate(-65.833 -98.188)" fill="#e5e5e5"/>
      <path id="Trazado_3581" data-name="Trazado 3581" d="M301.1,414.63c-3.176,4.353-18.28,43.494-14.472,54.7,6.713,19.7,53.1,56.115,53.1,56.115.821-3.283,2.827-12.72,2.827-12.72s-31.677-44.044-33.326-47.342c2.589-4,13.893-26.141,14.956-37.684S301.1,414.63,301.1,414.63Z" transform="translate(-24.278 -160.246)" fill="#f4a783"/>
      <path id="Trazado_3582" data-name="Trazado 3582" d="M452.685,293c0,4.046-17.615,3.808-17.615,0V267.21h17.615Z" transform="translate(-112.169 -73.315)" fill="#e87f55"/>
      <ellipse id="Elipse_863" data-name="Elipse 863" cx="16.634" cy="24.627" rx="16.634" ry="24.627" transform="translate(321.472 160.216) rotate(-1.08)" fill="#f4a783"/>
      <circle id="Elipse_864" data-name="Elipse 864" cx="4.793" cy="4.793" r="4.793" transform="translate(316.791 185.627)" fill="#de8e68"/>
      <path id="Trazado_3583" data-name="Trazado 3583" d="M461.436,151.5a8.2,8.2,0,0,0-8.206-8.617c-6.664,0-10.389,5.334-16.413,5.334-6.471,0-7.989-3.693-14.771-3.693-13.106,0-11.764,13.5-14.468,17.75-3.4,5.334-5.638,10.8-5.638,14.665,0,7.09,4.362,10.209,7.9,11.522a4.792,4.792,0,0,1,8.764.123,3.909,3.909,0,0,0,2.688-3.59c0-2.261-2.433-6.155,1-9.684,2.9-2.983,19.063-2.015,21.936-5.453a29.9,29.9,0,0,1,2.462,5.982,12.633,12.633,0,0,0,2.462.279c7.242,0,9.848-3.693,9.848-6.155,0-3.693-3.283-5.059-3.283-7.386C455.692,158.456,461.436,158.969,461.436,151.5Z" transform="translate(-92.633)" fill="#1c1c1c"/>
      <line id="Línea_56" data-name="Línea 56" x2="2.38" y2="0.476" transform="translate(360.038 209.048)" fill="#de8e68"/>
      <path id="Trazado_3584" data-name="Trazado 3584" d="M339.894,339.293c14.944,6.819,4.062,45.135-.972,47.1s-31.668-1.949-32.481-13.639S329.3,334.452,339.894,339.293Z" transform="translate(-36.307 -115.478)" fill="#e5e5e5"/>
      <path id="Trazado_3585" data-name="Trazado 3585" d="M667.67,996.163l10.172-4.263h21.127l1.354,3.488-28.39,11.144Z" transform="translate(-249.329 -500.652)"/>
      <path id="Trazado_3586" data-name="Trazado 3586" d="M498.01,931.86l8.851,6.582,10.767,18.173-2.31,2.946L491.26,940.813Z" transform="translate(-145.304 -465.248)"/>
      <path id="Trazado_3587" data-name="Trazado 3587" d="M1025.292,463.253c2.052,6.721-15.161,8.112-16.138,4.9S1023.109,456.064,1025.292,463.253Z" transform="translate(-450.67 -187.303)" fill="#74de84"/>
      <path id="Trazado_3588" data-name="Trazado 3588" d="M1020.279,506.485c3.217,6.241-13.45,10.713-14.989,7.726S1016.816,499.8,1020.279,506.485Z" transform="translate(-448.344 -213.195)" fill="#74de84"/>
      <path id="Trazado_3589" data-name="Trazado 3589" d="M1022.648,556.085c3.217,6.241-13.446,10.713-14.989,7.726S1019.214,549.4,1022.648,556.085Z" transform="translate(-449.741 -242.443)" fill="#74de84"/>
      <path id="Trazado_3590" data-name="Trazado 3590" d="M1027.043,602.247c2.926,5.675-11.616,9.437-13.015,6.709S1023.913,596.179,1027.043,602.247Z" transform="translate(-453.5 -269.751)" fill="#74de84"/>
      <path id="Trazado_3591" data-name="Trazado 3591" d="M1031.5,653.245c2.926,5.675-11.616,9.437-13.015,6.709S1028.369,647.172,1031.5,653.245Z" transform="translate(-456.13 -299.823)" fill="#74de84"/>
      <path id="Trazado_3592" data-name="Trazado 3592" d="M940.28,598.433c.5-2.3,24.529-19.453,30.22-45.988,9.273-43.252-10.233-70.095-3.611-100.991,1.231-5.839,5.744-24.123,16.61-29.563" transform="translate(-410.083 -164.527)" fill="none" stroke="#74de84" stroke-linecap="round" stroke-miterlimit="10" stroke-width="9"/>
      <path id="Trazado_3593" data-name="Trazado 3593" d="M987.323,721.886c5.531-3.192,9.971,11.152,7.32,12.683S981.4,725.3,987.323,721.886Z" transform="translate(-436.778 -341.157)" fill="#74de84"/>
      <path id="Trazado_3594" data-name="Trazado 3594" d="M987.8,680.048c4.234-4.78,12.987,7.423,10.96,9.712S983.264,685.161,987.8,680.048Z" transform="translate(-437.557 -316.11)" fill="#74de84"/>
      <path id="Trazado_3595" data-name="Trazado 3595" d="M989.188,632.068c4.234-4.78,12.987,7.423,10.96,9.712S984.654,637.185,989.188,632.068Z" transform="translate(-438.376 -287.817)" fill="#74de84"/>
      <path id="Trazado_3596" data-name="Trazado 3596" d="M982.442,591.419c3.283-5.486,14.148,4.862,12.584,7.488S978.946,597.29,982.442,591.419Z" transform="translate(-434.626 -263.563)" fill="#74de84"/>
      <path id="Trazado_3597" data-name="Trazado 3597" d="M971.374,536.867c4.1-4.891,13.184,7.066,11.218,9.409S966.98,542.1,971.374,536.867Z" transform="translate(-427.908 -231.641)" fill="#74de84"/>
      <path id="Trazado_3598" data-name="Trazado 3598" d="M973.021,478.631c4.514-4.493,12.478,8.247,10.307,10.4S968.167,483.456,973.021,478.631Z" transform="translate(-428.754 -197.425)" fill="#74de84"/>
      <path id="Trazado_3599" data-name="Trazado 3599" d="M1008.445,403.841c4.513-4.513,12.478,8.247,10.307,10.4S1003.579,408.65,1008.445,403.841Z" transform="translate(-449.641 -153.319)" fill="#74de84"/>
      <path id="Trazado_3600" data-name="Trazado 3600" d="M861.054,604.35c-1.206-3.217-2.052-12-2.052-16.273,0-28.685-17.032-34.056-25.743-34.056-16.954,0-26.519,15.678-26.519,28.538,0,11.374,4.825,21.484,10.742,30.027a9.138,9.138,0,1,1,11.263,13.906c4.887,5.449,8.929,9.679,9.934,12.511,3.418,9.462,1.937,13.951,3.869,18.579,4.71,11.28,9.507,17.151,15.247,16.651,13.311-1.161,18.575-12.449,18.575-41.619C876.391,624.348,865.633,616.544,861.054,604.35Z" transform="translate(-331.337 -242.442)" fill="#74de84"/>
      <path id="Trazado_3601" data-name="Trazado 3601" d="M749.148,342.3,670.97,360.5V183.286l78.178-20.536Z" transform="translate(-251.275 -11.717)" fill="#bce8ff" opacity="0.86"/>
      <path id="Trazado_3602" data-name="Trazado 3602" d="M908.473,890.179H872.188a3.927,3.927,0,0,1-3.73-2.692l-18.033-54.7a3.923,3.923,0,0,1,3.726-5.154h72.532a3.927,3.927,0,0,1,3.726,5.166L912.2,887.5A3.923,3.923,0,0,1,908.473,890.179Z" transform="translate(-356.98 -403.785)" fill="#fd8369"/>
    </g>
    <path id="Trazado_3605" data-name="Trazado 3605" d="M7146,4246.143l65.122,36.045-.225-80.082-64.872-28.84Z" transform="translate(-6465 -3827)" fill="#90b0d1"/>
    <path id="Trazado_3607" data-name="Trazado 3607" d="M7432.227,4236.616s-4.163-56.625-28.592-91.978" transform="translate(-6465 -3827)" fill="none" stroke="#0c952c" stroke-width="1"/>
    <path id="Trazado_3608" data-name="Trazado 3608" d="M7417.931,4173.266l-22.064-5.04" transform="translate(-6465 -3827)" fill="none" stroke="#0c952c" stroke-width="1"/>
    <path id="Trazado_3609" data-name="Trazado 3609" d="M7234.853,4010.252h10.7a6.24,6.24,0,0,1-5.664,3.329A5.206,5.206,0,0,1,7234.853,4010.252Z" transform="translate(-6460.783 -3825.39)" fill="#fff"/>
  </g>
</svg>
