<svg xmlns="http://www.w3.org/2000/svg" width="156.04" height="51.349" viewBox="0 0 156.04 51.349">
  <g id="Grupo_717" data-name="Grupo 717" transform="translate(-608.933 -551.372)">
    <text id="axolotl" transform="translate(658.973 594.721)" fill="#2b2b2b" font-size="37" font-family="HelveticaNeue-Bold, Helvetica Neue" font-weight="700" letter-spacing="-0.06em"><tspan x="0" y="0">axolotl</tspan></text>
    <g id="Grupo_14" data-name="Grupo 14" transform="translate(609.44 551.837)">
      <path id="Trazado_38" data-name="Trazado 38" d="M115.8,140.751c2.33,2.5,6.875,2.259,9.867-.328s3.6-6.3,1.583-8.465a101.251,101.251,0,0,1-11.314-12.4c-4.7-5.86-8.029-12.488-9.889-11.768-1.815.614-1.82,9.016.929,16.758C109.408,132.419,114.594,139.626,115.8,140.751Z" transform="translate(-85.055 -107.74)" fill="#2b2b2b" stroke="#f2f2f2" stroke-width="1"/>
      <path id="Trazado_40" data-name="Trazado 40" d="M54.219,204.225c3.145,1.34,7.2-.728,8.883-4.307s.728-7.216-1.991-8.378a101.2,101.2,0,0,1-15.374-6.733c-6.672-3.447-12.409-8.151-13.816-6.737-1.409,1.3,2,8.979,7.655,14.936C44.993,199.208,52.659,203.688,54.219,204.225Z" transform="translate(-25.653 -164.619)" fill="#2b2b2b" stroke="#f2f2f2" stroke-width="1"/>
      <path id="Trazado_42" data-name="Trazado 42" d="M31.058,282.2c3.418-.052,6.285-3.588,6.37-7.542s-2.264-6.89-5.22-6.849a101.2,101.2,0,0,1-16.783.087c-7.5-.443-14.65-2.413-15.362-.55-.761,1.758,5.471,7.395,13.059,10.543C20.589,281.362,29.414,282.345,31.058,282.2Z" transform="translate(0 -236.659)" fill="#2b2b2b" stroke="#f2f2f2" stroke-width="1"/>
    </g>
  </g>
</svg>
