<svg xmlns="http://www.w3.org/2000/svg" width="53.911" height="33.7" viewBox="0 0 53.911 33.7">
  <g id="_002-behance" data-name="002-behance" transform="translate(0 -4.5)">
    <path id="Trazado_3661" data-name="Trazado 3661" d="M27.776,27.971c0-4.152-1.975-7.221-6.055-8.371,2.977-1.418,4.529-3.565,4.529-6.906,0-6.587-4.925-8.194-10.607-8.194H0V37.573H16.082c6.03,0,11.694-2.882,11.694-9.6ZM7.293,10.146h6.843c2.631,0,5,.737,5,3.779,0,2.808-1.842,3.938-4.448,3.938H7.293Zm0,21.811V22.849h7.949c3.211,0,5.242,1.335,5.242,4.723,0,3.341-2.424,4.386-5.392,4.386Z" fill="#fff"/>
    <path id="Trazado_3662" data-name="Trazado 3662" d="M25.618,33.51c5.738,0,9.454-2.577,11.242-8.054H31.037c-.627,2.044-3.211,3.125-5.215,3.125-3.867,0-5.9-2.258-5.9-6.1H37.253C37.8,14.807,33.524,8.262,25.616,8.262c-7.322,0-12.292,5.486-12.292,12.674C13.324,28.395,18.033,33.51,25.618,33.51Zm-.207-20.279c3.314,0,4.981,1.941,5.259,5.116H19.934a5.152,5.152,0,0,1,5.477-5.116Z" transform="translate(16.611 4.69)" fill="#fff"/>
    <path id="Trazado_3663" data-name="Trazado 3663" d="M15.667,5.273H29.12V8.531H15.667Z" transform="translate(19.532 0.964)" fill="#fff"/>
  </g>
</svg>
