<svg xmlns="http://www.w3.org/2000/svg" width="135.415" height="37.154" viewBox="0 0 135.415 37.154">
  <g id="Grupo_716" data-name="Grupo 716" transform="translate(-45.167 -96.885)">
    <g id="Grupo_714" data-name="Grupo 714" transform="translate(45.167 96.885)">
      <path id="Trazado_3610" data-name="Trazado 3610" d="M98.712,115.723V107.6a.729.729,0,0,1,.708-.708h3.417a.73.73,0,0,1,.708.708v8.126c0,2.125.959,3.709,3.417,3.709,2.375,0,3.417-1.584,3.417-3.709V107.6a.729.729,0,0,1,.708-.708h3.417a.73.73,0,0,1,.708.708v8.126c0,5.542-3.625,8.334-8.251,8.334S98.712,121.264,98.712,115.723Z" transform="translate(-79.168 -103.237)" fill="#2b2b2b"/>
      <path id="Trazado_3611" data-name="Trazado 3611" d="M226.049,113.167v8.667a.731.731,0,0,1-.709.709h-3.417a.731.731,0,0,1-.708-.709v-8.667c0-2.125-1.042-3.708-3.417-3.708-2.458,0-3.418,1.584-3.418,3.708v8.667a.731.731,0,0,1-.709.709h-3.416a.731.731,0,0,1-.708-.709v-8.667c0-5.542,3.626-8.334,8.251-8.334S226.049,107.625,226.049,113.167Z" transform="translate(-149.547 -101.932)" fill="#2b2b2b"/>
      <path id="Trazado_3612" data-name="Trazado 3612" d="M270.914,116.787a.73.73,0,0,1-.708.709h-3.418a.731.731,0,0,1-.708-.709V106.413h-4.292a.73.73,0,0,1-.709-.709v-3.25a.73.73,0,0,1,.709-.708h4.292V97.594a.731.731,0,0,1,.708-.709h3.418a.73.73,0,0,1,.708.709v4.152h4.292a.73.73,0,0,1,.709.708v3.25a.73.73,0,0,1-.709.709h-4.292Z" transform="translate(-182.27 -96.885)" fill="#2b2b2b"/>
      <path id="Trazado_3613" data-name="Trazado 3613" d="M345.268,105.061a2.959,2.959,0,1,1-2.958,2.958A2.971,2.971,0,0,1,345.268,105.061Zm2.96,14.544a2.959,2.959,0,0,1-5.918,0v-3.267a2.959,2.959,0,1,1,5.918,0Z" transform="translate(-233.851 -102.077)" fill="#2b2b2b"/>
      <g id="Grupo_712" data-name="Grupo 712" transform="translate(39.032 2.901)">
        <path id="Trazado_3614" data-name="Trazado 3614" d="M160.937,104.833a8.475,8.475,0,0,0-8.834,8.876c0,5.125,2.749,8.71,7.361,8.824l3.654.011V118h-2.306c-2,0-4.041-1-4.041-4.334a4.1,4.1,0,0,1,4.166-4.251,4.233,4.233,0,0,1,2.181.617,4.023,4.023,0,0,1,1.857,3.563v8.237a.73.73,0,0,0,.707.709h3.3a.73.73,0,0,0,.708-.709v-8.25C169.689,107.833,165.855,104.833,160.937,104.833Z" transform="translate(-152.103 -104.833)" fill="#2b2b2b"/>
      </g>
      <path id="Trazado_3615" data-name="Trazado 3615" d="M308.229,113.544v8.372a.752.752,0,0,0,.73.73h3.521a.753.753,0,0,0,.73-.73v-8.372c0-2.4,1.161-3.359,2.978-3.732v-4.817C311.9,105.364,308.229,107.879,308.229,113.544Z" transform="translate(-212.21 -102.035)" fill="#2b2b2b"/>
      <g id="Grupo_713" data-name="Grupo 713" transform="translate(0 3.151)">
        <path id="Trazado_3616" data-name="Trazado 3616" d="M53.977,118.562c-1.732,0-3.941-.814-3.941-4.207s2.209-4.206,3.941-4.206a3.65,3.65,0,0,1,3.514,2h4.985c-.856-4.354-4.294-6.627-8.551-6.627-4.926,0-8.758,3.042-8.758,8.834s3.831,8.834,8.758,8.834c4.257,0,7.695-2.273,8.551-6.627H57.493A3.649,3.649,0,0,1,53.977,118.562Z" transform="translate(-45.167 -105.519)" fill="#2b2b2b"/>
      </g>
      <path id="Trazado_3617" data-name="Trazado 3617" d="M387.082,110.155v-4.63c-4.073.035-7.378,2.163-8.357,6.214-.979-4.051-4.284-6.178-8.357-6.214v4.625c1.706.049,3.786.913,3.786,4.2s-2.08,4.156-3.786,4.2v4.63c4.073-.035,7.378-2.163,8.357-6.213.979,4.051,4.284,6.178,8.357,6.213v-4.625c-1.705-.048-3.785-.913-3.785-4.2S385.377,110.2,387.082,110.155Z" transform="translate(-251.668 -102.371)" fill="#2b2b2b"/>
    </g>
    <g id="Grupo_715" data-name="Grupo 715" transform="translate(132.073 124.09)">
      <path id="Trazado_3618" data-name="Trazado 3618" d="M283.263,172.538v-1.119h1.4v1.119Zm.021,6.442v-5.5h1.372v5.5Z" transform="translate(-283.263 -171.419)" fill="#2b2b2b"/>
      <path id="Trazado_3619" data-name="Trazado 3619" d="M290.235,182.563v-1.046l2.439-3.221h-2.3v-1.236h4.055v1.046l-2.471,3.221h2.471v1.236Z" transform="translate(-287.69 -175.002)" fill="#2b2b2b"/>
      <path id="Trazado_3620" data-name="Trazado 3620" d="M304.063,182.563v-1.046l2.44-3.221h-2.3v-1.236h4.055v1.046l-2.471,3.221h2.471v1.236Z" transform="translate(-296.471 -175.002)" fill="#2b2b2b"/>
      <path id="Trazado_3621" data-name="Trazado 3621" d="M318.875,172.538v-1.119h1.4v1.119Zm.022,6.442v-5.5h1.372v5.5Z" transform="translate(-305.876 -171.419)" fill="#2b2b2b"/>
      <path id="Trazado_3622" data-name="Trazado 3622" d="M336.106,183.05c-1.309,0-2.3-.887-2.3-2.662s.993-2.661,2.3-2.661a2.058,2.058,0,0,1,1.711.771l-.518.486a1.426,1.426,0,0,0-1.193-.581,1.407,1.407,0,0,0-1.2.591,3.044,3.044,0,0,0,0,2.788,1.407,1.407,0,0,0,1.2.592,1.438,1.438,0,0,0,1.193-.592l.518.5A2.057,2.057,0,0,1,336.106,183.05Z" transform="translate(-315.356 -175.425)" fill="#2b2b2b"/>
      <path id="Trazado_3623" data-name="Trazado 3623" d="M351.189,182.459a2.171,2.171,0,0,1-2.978,0,3.7,3.7,0,0,1,0-4.14,2.171,2.171,0,0,1,2.978,0,3.7,3.7,0,0,1,0,4.14Zm-.538-3.676a1.335,1.335,0,0,0-.951-.38,1.307,1.307,0,0,0-.94.38,3.261,3.261,0,0,0,0,3.211,1.307,1.307,0,0,0,.94.38,1.335,1.335,0,0,0,.951-.38,3.339,3.339,0,0,0,0-3.211Z" transform="translate(-324.103 -175.425)" fill="#2b2b2b"/>
      <path id="Trazado_3624" data-name="Trazado 3624" d="M366.289,179.054v-.623a1.683,1.683,0,0,1-1.478.687,1.807,1.807,0,0,1-1.267-.454,4.159,4.159,0,0,1,0-4.414,1.809,1.809,0,0,1,1.267-.454,1.67,1.67,0,0,1,1.468.665v-2.926h.76v7.519Zm-1.309-4.583c-1.13,0-1.309.971-1.309,1.985s.18,1.986,1.309,1.986,1.3-.972,1.3-1.986S366.11,174.471,364.98,174.471Z" transform="translate(-333.838 -171.493)" fill="#2b2b2b"/>
      <path id="Trazado_3625" data-name="Trazado 3625" d="M379.314,172.362v-.856h.855v.856Zm.042,6.674v-5.2h.76v5.2Z" transform="translate(-344.255 -171.474)" fill="#2b2b2b"/>
      <path id="Trazado_3626" data-name="Trazado 3626" d="M390.075,182.986v-3.2a1.287,1.287,0,1,0-2.566,0v3.2h-.761v-5.2h.761v.57a1.872,1.872,0,0,1,1.457-.634,1.819,1.819,0,0,1,1.331.486,1.92,1.92,0,0,1,.539,1.447v3.327Z" transform="translate(-348.975 -175.425)" fill="#2b2b2b"/>
      <path id="Trazado_3627" data-name="Trazado 3627" d="M404.2,185.373a2.291,2.291,0,0,1-1.763-.7l.5-.486a1.6,1.6,0,0,0,1.246.518c1,0,1.425-.707,1.425-1.595V182.3a1.673,1.673,0,0,1-1.457.676,1.787,1.787,0,0,1-1.256-.465,4.016,4.016,0,0,1,0-4.33,1.81,1.81,0,0,1,1.267-.454,1.638,1.638,0,0,1,1.458.676v-.613h.749v5.354A2.067,2.067,0,0,1,404.2,185.373Zm.116-6.97c-1.13,0-1.3.971-1.3,1.943s.169,1.943,1.3,1.943,1.288-.971,1.288-1.943S405.445,178.4,404.315,178.4Z" transform="translate(-358.823 -175.425)" fill="#2b2b2b"/>
    </g>
  </g>
</svg>
