<svg xmlns="http://www.w3.org/2000/svg" width="43.544" height="43.593" viewBox="0 0 43.544 43.593">
  <path id="_003-dribbble" data-name="003-dribbble" d="M29.7,42.079c.036-.011.071-.025.107-.038C51.991,33.227,45.855,0,21.793,0A21.784,21.784,0,1,0,29.7,42.079Zm-20.11-5.65c1.547-2.6,6.554-9.938,15.1-12.469a45.9,45.9,0,0,1,3.164,15.9A18.948,18.948,0,0,1,9.591,36.429Zm20.943,2.294a48.9,48.9,0,0,0-3.106-15.377A24.683,24.683,0,0,1,40.55,25.138,19.112,19.112,0,0,1,30.534,38.723Zm10.3-16.4a26.426,26.426,0,0,0-14.454-1.515c-.645-1.453-1.322-2.849-2.039-4.135A36.325,36.325,0,0,0,36.213,9.353,18.824,18.824,0,0,1,40.835,22.322ZM34.279,7.413A34.958,34.958,0,0,1,22.91,14.26a50.963,50.963,0,0,0-8.35-10.1A18.956,18.956,0,0,1,34.279,7.413ZM11.955,5.49a47.941,47.941,0,0,1,8.26,9.729A59.962,59.962,0,0,1,3.127,17.9,19.1,19.1,0,0,1,11.955,5.49ZM2.782,20.631a62.71,62.71,0,0,0,18.9-2.993c.683,1.2,1.331,2.5,1.954,3.856-8.6,2.739-13.973,9.809-16.031,13A18.821,18.821,0,0,1,2.782,20.631Z" fill="#fff"/>
</svg>
