<svg id="Grupo_471" data-name="Grupo 471" xmlns="http://www.w3.org/2000/svg" width="67.51" height="52.575" viewBox="0 0 67.51 52.575">
  <g id="Grupo_176" data-name="Grupo 176" transform="translate(11.708)">
    <path id="Trazado_351" data-name="Trazado 351" d="M717.665,304.84a27.944,27.944,0,0,0-7.7,1.076H725.32A27.7,27.7,0,0,0,717.665,304.84Z" transform="translate(-695.614 -304.84)" fill="#2b2b2b"/>
    <path id="Trazado_352" data-name="Trazado 352" d="M731.861,308.881c-.724-.434-1.469-.848-2.255-1.231h-7.116a11.6,11.6,0,0,1,2.037,1.231Z" transform="translate(-695.185 -304.743)" fill="#2b2b2b"/>
    <path id="Trazado_353" data-name="Trazado 353" d="M705.465,307.65c-.786.383-1.541.8-2.255,1.231H710.6a11.6,11.6,0,0,1,2.037-1.231Z" transform="translate(-695.846 -304.743)" fill="#2b2b2b"/>
    <path id="Trazado_354" data-name="Trazado 354" d="M701.013,310.37a17.412,17.412,0,0,0-2.193,1.934h8.771a12.449,12.449,0,0,1,1.428-1.934Z" transform="translate(-695.996 -304.65)" fill="#2b2b2b"/>
    <path id="Trazado_355" data-name="Trazado 355" d="M736.308,312.294a19.5,19.5,0,0,0-2.213-1.934H726.12a12,12,0,0,1,1.427,1.934Z" transform="translate(-695.06 -304.651)" fill="#2b2b2b"/>
    <path id="Trazado_356" data-name="Trazado 356" d="M738.771,316.3a9.047,9.047,0,0,0-1.407-2.782H728.17a12.027,12.027,0,0,1,.838,2.782Z" transform="translate(-694.989 -304.542)" fill="#2b2b2b"/>
    <path id="Trazado_357" data-name="Trazado 357" d="M697.787,313.52a9.138,9.138,0,0,0-1.4,2.782h9.754a12.532,12.532,0,0,1,.838-2.782Z" transform="translate(-696.08 -304.542)" fill="#2b2b2b"/>
    <path id="Trazado_358" data-name="Trazado 358" d="M729,320.307h9.774a7.717,7.717,0,0,0,.279-2.017,6.73,6.73,0,0,0-.062-.921h-9.857c.021.3.041.61.041.921A11.7,11.7,0,0,1,729,320.307Z" transform="translate(-694.961 -304.41)" fill="#2b2b2b"/>
    <path id="Trazado_359" data-name="Trazado 359" d="M706.009,317.37h-9.857a6.74,6.74,0,0,0-.062.921,7.3,7.3,0,0,0,.279,2.017h9.764a11.7,11.7,0,0,1-.165-2.017A9.059,9.059,0,0,1,706.009,317.37Z" transform="translate(-696.09 -304.41)" fill="#2b2b2b"/>
    <path id="Trazado_360" data-name="Trazado 360" d="M736.413,324.252a10.621,10.621,0,0,0,2.069-3.082h-9.63a12.233,12.233,0,0,1-1.262,3.082Z" transform="translate(-695.009 -304.279)" fill="#2b2b2b"/>
    <path id="Trazado_361" data-name="Trazado 361" d="M696.69,321.17a10.483,10.483,0,0,0,2.069,3.082h8.823a11.871,11.871,0,0,1-1.262-3.082Z" transform="translate(-696.069 -304.28)" fill="#2b2b2b"/>
    <path id="Trazado_362" data-name="Trazado 362" d="M708.022,324.97h-8.5a23.414,23.414,0,0,0,3.31,2.482c.672.424,1.386.838,2.12,1.22h7.168A12.122,12.122,0,0,1,708.022,324.97Z" transform="translate(-695.973 -304.149)" fill="#2b2b2b"/>
    <path id="Trazado_363" data-name="Trazado 363" d="M723.1,328.673h7.178c.734-.383,1.448-.8,2.12-1.22a23.4,23.4,0,0,0,3.31-2.482H727.2A12.025,12.025,0,0,1,723.1,328.673Z" transform="translate(-695.164 -304.149)" fill="#2b2b2b"/>
    <path id="Trazado_364" data-name="Trazado 364" d="M712.848,329H705.68a27.865,27.865,0,0,0,24.275,0h-7.178a12.07,12.07,0,0,1-4.965,1.055A11.833,11.833,0,0,1,712.848,329Z" transform="translate(-695.761 -304.011)" fill="#2b2b2b"/>
  </g>
  <g id="Grupo_178" data-name="Grupo 178" transform="translate(7.364 43.338)">
    <g id="Grupo_177" data-name="Grupo 177">
      <path id="Trazado_365" data-name="Trazado 365" d="M694.393,348.891h-2.5V346.74h7.757v2.151h-2.5v6.92h-2.751Z" transform="translate(-691.89 -346.74)" fill="#2b2b2b"/>
      <path id="Trazado_366" data-name="Trazado 366" d="M700.809,351.748a1.17,1.17,0,0,1,1.272-1.086,1.06,1.06,0,0,1,1.086,1.086Zm4.737,1.293c0-2.524-1.117-3.961-3.692-3.961a3.424,3.424,0,1,0,3.558,4.768h-2.317a1.247,1.247,0,0,1-1.034.466,1.228,1.228,0,0,1-1.262-1.262h4.747Z" transform="translate(-691.666 -346.66)" fill="#2b2b2b"/>
      <path id="Trazado_367" data-name="Trazado 367" d="M706.5,346.74h2.482v9.071H706.5Z" transform="translate(-691.389 -346.74)" fill="#2b2b2b"/>
      <path id="Trazado_368" data-name="Trazado 368" d="M712.479,351.748a1.171,1.171,0,0,1,1.272-1.086,1.06,1.06,0,0,1,1.086,1.086Zm4.748,1.293c0-2.524-1.107-3.961-3.692-3.961a3.424,3.424,0,1,0,3.558,4.768h-2.317a1.246,1.246,0,0,1-1.034.466,1.229,1.229,0,0,1-1.262-1.262h4.748Z" transform="translate(-691.265 -346.66)" fill="#2b2b2b"/>
      <path id="Trazado_369" data-name="Trazado 369" d="M722.448,355.725h-2.927l-2.131-6.5h2.617l1.014,3.951h.021l1.024-3.951h2.524Z" transform="translate(-691.015 -346.654)" fill="#2b2b2b"/>
      <path id="Trazado_370" data-name="Trazado 370" d="M725.33,349.315H727.8v6.5H725.33Zm2.472-.838H725.33V346.74H727.8Z" transform="translate(-690.743 -346.74)" fill="#2b2b2b"/>
      <path id="Trazado_371" data-name="Trazado 371" d="M732.966,351.128a.607.607,0,0,0-.289-.486.859.859,0,0,0-.548-.186c-.352,0-.755.072-.755.5,0,.186.155.279.29.341.414.176,1.355.228,2.172.5a1.867,1.867,0,0,1,1.551,1.81c0,1.8-1.727,2.286-3.3,2.286-1.531,0-3.206-.61-3.237-2.286h2.369a.8.8,0,0,0,.3.579,1.011,1.011,0,0,0,.662.186c.32,0,.838-.124.838-.5s-.217-.486-1.365-.693c-1.893-.321-2.648-.931-2.648-2.038,0-1.645,1.769-2.069,3.061-2.069,1.4,0,3.082.383,3.144,2.048h-2.245Z" transform="translate(-690.622 -346.66)" fill="#2b2b2b"/>
      <path id="Trazado_372" data-name="Trazado 372" d="M740.474,353.414a.989.989,0,0,1-1.045,1.013.71.71,0,0,1-.776-.6c0-.435.289-.579.837-.7a4.364,4.364,0,0,0,.983-.31Zm2.379-1.8c0-1.251.021-2.544-3.072-2.544-1.541,0-3.268.3-3.341,2.131h2.3c.01-.279.155-.662.921-.662.4,0,.817.166.817.6,0,.414-.341.507-.672.579-1.262.238-3.661.165-3.661,2.213,0,1.365,1.034,1.965,2.286,1.965a2.646,2.646,0,0,0,2.089-.776h.031a1.775,1.775,0,0,0,.083.61h2.524a2.583,2.583,0,0,1-.3-1.448v-2.669Z" transform="translate(-690.372 -346.66)" fill="#2b2b2b"/>
    </g>
  </g>
  <g id="Grupo_179" data-name="Grupo 179" transform="translate(0 31.878)">
    <path id="Trazado_373" data-name="Trazado 373" d="M684.77,335.71h7.064v2.338h-4.251v1.138h3.641v2.172h-3.641v3.486H684.77Z" transform="translate(-684.77 -335.658)" fill="#2b2b2b"/>
    <path id="Trazado_374" data-name="Trazado 374" d="M699.429,344.761h-2.441v-.848h-.021a2.455,2.455,0,0,1-2.172,1,2.132,2.132,0,0,1-2.276-2.245V338.12h2.524V341.6c0,.765.093,1.3.838,1.3.434,0,1.014-.217,1.014-1.283V338.11h2.524v6.651Z" transform="translate(-684.504 -335.576)" fill="#2b2b2b"/>
    <path id="Trazado_375" data-name="Trazado 375" d="M700.53,338.125h2.441v.848h.021a2.455,2.455,0,0,1,2.172-1,2.132,2.132,0,0,1,2.276,2.244v4.551h-2.524V341.29c0-.765-.093-1.3-.838-1.3-.434,0-1.014.217-1.014,1.283v3.506h-2.524v-6.651Z" transform="translate(-684.229 -335.581)" fill="#2b2b2b"/>
    <path id="Trazado_376" data-name="Trazado 376" d="M713.027,341.513c0,.786-.207,1.645-1.117,1.645s-1.117-.858-1.117-1.645.207-1.634,1.117-1.634S713.027,340.737,713.027,341.513Zm2.431-5.8h-2.524v3.227h-.021a2.18,2.18,0,0,0-1.82-.89c-2.224,0-2.824,1.893-2.824,3.444,0,1.655.91,3.506,2.783,3.506a2.076,2.076,0,0,0,1.954-.889h.021v.734h2.441V335.71Z" transform="translate(-683.964 -335.658)" fill="#2b2b2b"/>
    <path id="Trazado_377" data-name="Trazado 377" d="M720.618,342.4a1,1,0,0,1-1.065,1.034.732.732,0,0,1-.8-.61c0-.445.29-.589.859-.714a4.2,4.2,0,0,0,1-.321v.61Zm2.431-1.831c0-1.283.021-2.6-3.144-2.6-1.572,0-3.341.31-3.423,2.172h2.358c.01-.279.166-.672.952-.672.414,0,.827.166.827.61,0,.424-.341.517-.693.59-1.293.238-3.755.165-3.755,2.244,0,1.4,1.065,2.007,2.348,2.007a2.689,2.689,0,0,0,2.141-.8h.021a1.723,1.723,0,0,0,.093.641h2.586a2.7,2.7,0,0,1-.31-1.479Z" transform="translate(-683.693 -335.581)" fill="#2b2b2b"/>
    <path id="Trazado_378" data-name="Trazado 378" d="M728.411,340.649a.85.85,0,0,0-.921-.848c-.972,0-1.117.838-1.117,1.645s.145,1.634,1.117,1.634a1.015,1.015,0,0,0,.983-.972h2.42a3.237,3.237,0,0,1-3.455,2.813,3.482,3.482,0,1,1,0-6.961c1.738,0,3.227.859,3.382,2.689Z" transform="translate(-683.429 -335.581)" fill="#2b2b2b"/>
    <path id="Trazado_379" data-name="Trazado 379" d="M731.74,338.2h2.524v6.64H731.74Zm2.524-.724H731.74V335.7h2.524Z" transform="translate(-683.158 -335.658)" fill="#2b2b2b"/>
    <path id="Trazado_380" data-name="Trazado 380" d="M740.006,341.514c0,.7-.124,1.645-1.086,1.645s-1.086-.941-1.086-1.645.124-1.634,1.086-1.634S740.006,340.811,740.006,341.514Zm1.531-5.854h-2.669l-1.261,1.9h1.737Zm.993,5.854A3.612,3.612,0,1,0,738.92,345,3.307,3.307,0,0,0,742.529,341.514Z" transform="translate(-683.036 -335.66)" fill="#2b2b2b"/>
    <path id="Trazado_381" data-name="Trazado 381" d="M743.36,338.125H745.8v.848h.021a2.455,2.455,0,0,1,2.172-1,2.132,2.132,0,0,1,2.275,2.244v4.551h-2.524V341.29c0-.765-.093-1.3-.838-1.3-.434,0-1.014.217-1.014,1.283v3.506H743.37v-6.651Z" transform="translate(-682.759 -335.581)" fill="#2b2b2b"/>
  </g>
</svg>
