<svg id="_001-linkedin" data-name="001-linkedin" xmlns="http://www.w3.org/2000/svg" width="39.593" height="39.593" viewBox="0 0 39.593 39.593">
  <path id="Trazado_3658" data-name="Trazado 3658" d="M34.068,34.672v0h.01V20.15c0-7.1-1.529-12.576-9.834-12.576a8.621,8.621,0,0,0-7.765,4.268h-.115v-3.6H8.489V34.671h8.2V21.582c0-3.446.653-6.779,4.921-6.779,4.205,0,4.268,3.933,4.268,7V34.672Z" transform="translate(5.515 4.921)" fill="#fff"/>
  <path id="Trazado_3659" data-name="Trazado 3659" d="M.4,7.977H8.605V34.41H.4Z" transform="translate(0.257 5.183)" fill="#fff"/>
  <path id="Trazado_3660" data-name="Trazado 3660" d="M4.754,0A4.777,4.777,0,1,0,9.509,4.754,4.756,4.756,0,0,0,4.754,0Z" fill="#fff"/>
</svg>
