<svg id="Grupo_1" data-name="Grupo 1" xmlns="http://www.w3.org/2000/svg" width="129.5" height="22.786" viewBox="0 0 129.5 22.786">
  <path id="Trazado_1" data-name="Trazado 1" d="M12.951,23.63H2.6v7.432q0,.263-.3.263H.273Q0,31.324,0,31.062V13.169c0-.192.091-.289.273-.289H12.955a11.932,11.932,0,0,1,2.935.32,4.545,4.545,0,0,1,1.966.99,4.5,4.5,0,0,1,1.091,1.821,8.654,8.654,0,0,1,.394,2.783q0,4.837-6.388,4.837M16.765,17.8a2.757,2.757,0,0,0-.273-1.282,1.839,1.839,0,0,0-.878-.815,4.539,4.539,0,0,0-1.121-.306,11.166,11.166,0,0,0-1.636-.1H2.6v5.917H12.86a7.483,7.483,0,0,0,2.753-.377v.03a1.819,1.819,0,0,0,.878-.845,2.938,2.938,0,0,0,.273-1.313Z" transform="translate(0 -8.545)" fill="#2b2b2b"/>
  <path id="Trazado_2" data-name="Trazado 2" d="M82.233,25.884a7.8,7.8,0,0,1-.606,2.272,4.759,4.759,0,0,1-3,2.42v.03a12.865,12.865,0,0,1-2.272.407,33.192,33.192,0,0,1-3.389.145H70.032q-4.6,0-6.385-.815a4.655,4.655,0,0,1-2.693-3.117,12.038,12.038,0,0,1-.347-2.359q-.106-1.515-.108-3.76a26.9,26.9,0,0,1,.165-3.2,7.206,7.206,0,0,1,.589-2.245,4.9,4.9,0,0,1,1.195-1.5,5.306,5.306,0,0,1,1.831-.976h.03a20.547,20.547,0,0,1,5.722-.552h2.935a17.239,17.239,0,0,1,6.355.845A4.421,4.421,0,0,1,80.97,14.67a5.054,5.054,0,0,1,1.013,1.952,18.093,18.093,0,0,1,.3,2.332c.081,1.01.121,2.265.121,3.76a23.35,23.35,0,0,1-.175,3.171M79.994,21.1a23.409,23.409,0,0,0-.121-2.565,4.686,4.686,0,0,0-.454-1.69,2.377,2.377,0,0,0-1.908-1.515,22.952,22.952,0,0,0-4.571-.289h-2.9a23.764,23.764,0,0,0-4.6.289,2.6,2.6,0,0,0-1.969,1.515A11.267,11.267,0,0,0,62.89,21.1v1.6a11.267,11.267,0,0,0,.576,4.254,2.684,2.684,0,0,0,2,1.484,22.893,22.893,0,0,0,4.571.293h2.9a22.665,22.665,0,0,0,4.54-.293,2.449,2.449,0,0,0,1.935-1.484,4.686,4.686,0,0,0,.454-1.69,23.361,23.361,0,0,0,.121-2.565V21.1Z" transform="translate(-40.137 -8.379)" fill="#2b2b2b"/>
  <path id="Trazado_3" data-name="Trazado 3" d="M152.36,30.284a4.673,4.673,0,0,1-1.892.8,13.5,13.5,0,0,1-2.77.249h-9.384a6.94,6.94,0,0,1-4.419-1.252A4.8,4.8,0,0,1,132.048,26q0-.263.242-.263h1.9q.273,0,.273.263a3.619,3.619,0,0,0,.333,1.488,1.994,1.994,0,0,0,1,.932,5.055,5.055,0,0,0,1.272.377,10.24,10.24,0,0,0,1.848.145h8.687a8.588,8.588,0,0,0,1.727-.145,3.858,3.858,0,0,0,1.148-.407,1.886,1.886,0,0,0,.848-.963,3.956,3.956,0,0,0,.242-1.457,2.388,2.388,0,0,0-1.666-2.417,6.041,6.041,0,0,0-1.754-.407,24.3,24.3,0,0,0-2.541-.118h-.727q-.394,0-.939.03h-1.03a.923.923,0,0,0-.151.013,1.321,1.321,0,0,1-.212.013h-.394q-.636.03-1.121.03h-.788a14.542,14.542,0,0,1-5.779-.875,4.306,4.306,0,0,1-2.571-4.312q0-5.039,5.9-5.042h9.565q6.477,0,6.476,5.331,0,.232-.212.232h-1.966q-.242,0-.242-.232a3.654,3.654,0,0,0-.333-1.471,2,2,0,0,0-1-.949A7.425,7.425,0,0,0,147,15.307H137.74a6.947,6.947,0,0,0-1.558.145,3.2,3.2,0,0,0-.983.377,2.316,2.316,0,0,0-.848,2.127,2.283,2.283,0,0,0,1.666,2.245,12.245,12.245,0,0,0,4.268.555h.939q.636,0,1.515-.03a1.329,1.329,0,0,0,.2-.013,1.593,1.593,0,0,1,.226-.013h.394q.545-.03.969-.03h.666a23.873,23.873,0,0,1,3.571.232,10.642,10.642,0,0,1,2.541.67,4.543,4.543,0,0,1,2.693,4.46,5.129,5.129,0,0,1-1.632,4.254" transform="translate(-87.506 -8.552)" fill="#2b2b2b"/>
  <path id="Trazado_4" data-name="Trazado 4" d="M236.485,28.44a3.835,3.835,0,0,1-1.407,1.777,5.135,5.135,0,0,1-2,.845,13.572,13.572,0,0,1-2.844.263H216.163q-.273,0-.273-.263V13.169c0-.192.091-.289.273-.289h13.2q6.659,0,6.657,4.722,0,2.767-1.393,3.877,2.3,1.08,2.3,4.342a7.088,7.088,0,0,1-.438,2.619m-3.77-12.517a4.469,4.469,0,0,0-2.6-.626H218.34v5.217h11.8a4.339,4.339,0,0,0,2.45-.495,2.106,2.106,0,0,0,1-2.1,2.289,2.289,0,0,0-.878-2m.878,7.506a3.5,3.5,0,0,0-1.1-.407,7.98,7.98,0,0,0-1.649-.145h-12.5v6.062h12.588a3.965,3.965,0,0,0,2.709-.774,2.987,2.987,0,0,0,.862-2.346,2.786,2.786,0,0,0-.909-2.39" transform="translate(-143.227 -8.545)" fill="#2b2b2b"/>
  <path id="Trazado_5" data-name="Trazado 5" d="M285.043,31.318q-.273,0-.273-.263V13.163q0-.293.273-.293h1.908q.273,0,.273.293V28.928h13.345q.273,0,.273.263v1.865q0,.263-.273.263Z" transform="translate(-188.924 -8.538)" fill="#2b2b2b"/>
  <path id="Trazado_6" data-name="Trazado 6" d="M335.483,31.318q-.273,0-.273-.263V13.163q0-.293.273-.293h16.162q.242,0,.242.293V15c0,.2-.081.289-.242.289H337.664v5.335h13.527q.242,0,.242.293v1.838q0,.293-.242.293H337.664v5.887h13.981q.242,0,.242.263v1.865q0,.263-.242.263H335.483Z" transform="translate(-222.387 -8.538)" fill="#2b2b2b"/>
  <path id="Trazado_7" data-name="Trazado 7" d="M203.429,3.2c-.165,0-.249-.111-.249-.337V.3c0-.2.081-.3.249-.3h1.558q.212,0,.212.3V2.864c0,.226-.071.337-.212.337Zm0,19.578c-.165,0-.249-.1-.249-.3V4.688c0-.2.081-.3.249-.3h1.558q.212,0,.212.3V22.476q0,.3-.212.3Z" transform="translate(-134.795 0)" fill="#2b2b2b"/>
</svg>
